<svg width="130" height="40" viewBox="0 0 130 40" fill="none" xmlns="http://www.w3.org/2000/svg">
<path fill-rule="evenodd" clip-rule="evenodd" d="M33.6666 16.5C33.2063 16.5 32.8333 16.8731 32.8333 17.3333V22.6667C32.8333 23.1269 33.2063 23.5 33.6666 23.5H40.3333C40.7935 23.5 41.1666 23.1269 41.1666 22.6667V20.6735C41.1665 20.6686 41.1665 20.6638 41.1666 20.6589V19.0095C41.1665 19.0035 41.1665 18.9975 41.1666 18.9914V17.3333C41.1666 16.8731 40.7935 16.5 40.3333 16.5H33.6666ZM42.1666 18.1294V17.3333C42.1666 16.3208 41.3458 15.5 40.3333 15.5H33.6666C32.6541 15.5 31.8333 16.3208 31.8333 17.3333V22.6667C31.8333 23.6792 32.6541 24.5 33.6666 24.5H40.3333C41.3458 24.5 42.1666 23.6792 42.1666 22.6667V21.6009L44.8716 23.4043C44.9971 23.4878 45.1429 23.5357 45.2934 23.5429C45.444 23.5501 45.5937 23.5163 45.7266 23.4452C45.8595 23.374 45.9706 23.2682 46.0481 23.1389C46.1255 23.0096 46.1665 22.8617 46.1666 22.7109V17.2468C46.1666 17.2468 46.1666 17.2469 46.1666 17.2468C46.1666 17.1002 46.128 16.9561 46.0545 16.8292C45.9811 16.7023 45.8755 16.597 45.7484 16.524C45.6212 16.4509 45.477 16.4127 45.3304 16.4132C45.1838 16.4137 45.0399 16.4529 44.9133 16.5268L42.1666 18.1294ZM42.1666 19.2872V20.3991L45.1666 22.3991V17.5368L42.1666 19.2872Z" fill="#869198"/>
<path d="M65.0352 20.4893C65.0352 21.2594 64.9372 21.9613 64.7412 22.5947C64.5452 23.2236 64.2536 23.766 63.8662 24.2217C63.4834 24.6729 63.0072 25.0215 62.4375 25.2676C61.8678 25.5137 61.207 25.6367 60.4551 25.6367C59.6803 25.6367 59.0036 25.5137 58.4248 25.2676C57.8506 25.0215 57.3721 24.6706 56.9893 24.2148C56.611 23.7591 56.3262 23.2145 56.1348 22.5811C55.9479 21.9476 55.8545 21.2458 55.8545 20.4756C55.8545 19.4548 56.0231 18.5592 56.3604 17.7891C56.6976 17.0189 57.208 16.4196 57.8916 15.9912C58.5798 15.5628 59.4411 15.3486 60.4756 15.3486C61.4645 15.3486 62.2962 15.5605 62.9707 15.9844C63.6497 16.4082 64.1624 17.0052 64.5088 17.7754C64.8597 18.541 65.0352 19.4456 65.0352 20.4893ZM57.0781 20.4893C57.0781 21.3369 57.1989 22.0706 57.4404 22.6904C57.682 23.3102 58.0511 23.7887 58.5479 24.126C59.0492 24.4632 59.6849 24.6318 60.4551 24.6318C61.2298 24.6318 61.8633 24.4632 62.3555 24.126C62.8522 23.7887 63.2191 23.3102 63.4561 22.6904C63.693 22.0706 63.8115 21.3369 63.8115 20.4893C63.8115 19.1995 63.5404 18.1924 62.998 17.4678C62.4603 16.7386 61.6195 16.374 60.4756 16.374C59.7008 16.374 59.0628 16.5404 58.5615 16.873C58.0602 17.2057 57.6865 17.6797 57.4404 18.2949C57.1989 18.9056 57.0781 19.637 57.0781 20.4893ZM70.6406 17.8711C71.5293 17.8711 72.2015 18.0898 72.6572 18.5273C73.113 18.9603 73.3408 19.6576 73.3408 20.6191V25.5H72.2197V20.6943C72.2197 20.07 72.0762 19.6029 71.7891 19.293C71.5065 18.9831 71.0713 18.8281 70.4834 18.8281C69.654 18.8281 69.0706 19.0628 68.7334 19.5322C68.3962 20.0016 68.2275 20.6829 68.2275 21.5762V25.5H67.0928V18.0078H68.0088L68.1797 19.0879H68.2412C68.4007 18.8236 68.6035 18.6025 68.8496 18.4248C69.0957 18.2425 69.3714 18.1058 69.6768 18.0146C69.9821 17.9189 70.3034 17.8711 70.6406 17.8711ZM76.8203 25.5H75.6787V14.8633H76.8203V25.5ZM80.3545 18.0078V25.5H79.2197V18.0078H80.3545ZM79.8008 15.2051C79.9876 15.2051 80.1471 15.2666 80.2793 15.3896C80.416 15.5081 80.4844 15.695 80.4844 15.9502C80.4844 16.2008 80.416 16.3877 80.2793 16.5107C80.1471 16.6338 79.9876 16.6953 79.8008 16.6953C79.6048 16.6953 79.4408 16.6338 79.3086 16.5107C79.181 16.3877 79.1172 16.2008 79.1172 15.9502C79.1172 15.695 79.181 15.5081 79.3086 15.3896C79.4408 15.2666 79.6048 15.2051 79.8008 15.2051ZM86.3086 17.8711C87.1973 17.8711 87.8695 18.0898 88.3252 18.5273C88.7809 18.9603 89.0088 19.6576 89.0088 20.6191V25.5H87.8877V20.6943C87.8877 20.07 87.7441 19.6029 87.457 19.293C87.1745 18.9831 86.7393 18.8281 86.1514 18.8281C85.3219 18.8281 84.7386 19.0628 84.4014 19.5322C84.0641 20.0016 83.8955 20.6829 83.8955 21.5762V25.5H82.7607V18.0078H83.6768L83.8477 19.0879H83.9092C84.0687 18.8236 84.2715 18.6025 84.5176 18.4248C84.7637 18.2425 85.0394 18.1058 85.3447 18.0146C85.6501 17.9189 85.9714 17.8711 86.3086 17.8711ZM94.2314 17.8711C94.8695 17.8711 95.4163 18.0124 95.8721 18.2949C96.3278 18.5775 96.6764 18.974 96.918 19.4844C97.1595 19.9902 97.2803 20.5827 97.2803 21.2617V21.9658H92.1055C92.1191 22.8454 92.3379 23.5153 92.7617 23.9756C93.1855 24.4359 93.7826 24.666 94.5527 24.666C95.0267 24.666 95.446 24.6227 95.8105 24.5361C96.1751 24.4495 96.5534 24.3219 96.9453 24.1533V25.1514C96.5671 25.32 96.1911 25.443 95.8174 25.5205C95.4482 25.598 95.0107 25.6367 94.5049 25.6367C93.7848 25.6367 93.1559 25.4909 92.6182 25.1992C92.085 24.903 91.6702 24.4701 91.374 23.9004C91.0778 23.3307 90.9297 22.6335 90.9297 21.8086C90.9297 21.002 91.0641 20.3047 91.333 19.7168C91.6064 19.1243 91.9893 18.6686 92.4814 18.3496C92.9782 18.0306 93.5615 17.8711 94.2314 17.8711ZM94.2178 18.8008C93.6117 18.8008 93.1286 18.999 92.7686 19.3955C92.4085 19.792 92.1943 20.3457 92.126 21.0566H96.0908C96.0863 20.61 96.0156 20.2181 95.8789 19.8809C95.7467 19.5391 95.5439 19.2747 95.2705 19.0879C94.9971 18.8965 94.6462 18.8008 94.2178 18.8008Z" fill="#C8CDD0"/>
</svg>