<svg width="130" height="40" viewBox="0 0 130 40" fill="none" xmlns="http://www.w3.org/2000/svg">
<path fill-rule="evenodd" clip-rule="evenodd" d="M24.8333 13.8335C24.6122 13.8335 24.4003 13.9213 24.244 14.0776C24.0877 14.2339 23.9999 14.4458 23.9999 14.6668V26.1668H30.9999V14.6668C30.9999 14.4458 30.9121 14.2339 30.7558 14.0776C30.5996 13.9213 30.3876 13.8335 30.1666 13.8335H24.8333ZM31.9999 17.5002V14.6668C31.9999 14.1806 31.8068 13.7143 31.4629 13.3705C31.1191 13.0267 30.6528 12.8335 30.1666 12.8335H24.8333C24.347 12.8335 23.8807 13.0267 23.5369 13.3705C23.1931 13.7143 22.9999 14.1806 22.9999 14.6668V19.5002H22.1666C21.6804 19.5002 21.214 19.6933 20.8702 20.0371C20.5264 20.3809 20.3333 20.8473 20.3333 21.3335V25.3335C20.3333 25.8197 20.5264 26.286 20.8702 26.6299C21.214 26.9737 21.6804 27.1668 22.1666 27.1668H32.8333C33.3195 27.1668 33.7858 26.9737 34.1296 26.6299C34.4734 26.286 34.6666 25.8197 34.6666 25.3335V19.3335C34.6666 18.8473 34.4734 18.3809 34.1296 18.0371C33.7858 17.6933 33.3195 17.5002 32.8333 17.5002H31.9999ZM31.9999 18.5002V26.1668H32.8333C33.0543 26.1668 33.2662 26.079 33.4225 25.9228C33.5788 25.7665 33.6666 25.5545 33.6666 25.3335V19.3335C33.6666 19.1125 33.5788 18.9005 33.4225 18.7442C33.2662 18.588 33.0543 18.5002 32.8333 18.5002H31.9999ZM22.9999 20.5002H22.1666C21.9456 20.5002 21.7336 20.588 21.5773 20.7442C21.421 20.9005 21.3333 21.1125 21.3333 21.3335V25.3335C21.3333 25.5545 21.421 25.7665 21.5773 25.9228C21.7336 26.079 21.9456 26.1668 22.1666 26.1668H22.9999V20.5002ZM25.6666 16.0002C25.6666 15.724 25.8904 15.5002 26.1666 15.5002H28.8333C29.1094 15.5002 29.3333 15.724 29.3333 16.0002C29.3333 16.2763 29.1094 16.5002 28.8333 16.5002H26.1666C25.8904 16.5002 25.6666 16.2763 25.6666 16.0002ZM25.6666 18.6668C25.6666 18.3907 25.8904 18.1668 26.1666 18.1668H28.8333C29.1094 18.1668 29.3333 18.3907 29.3333 18.6668C29.3333 18.943 29.1094 19.1668 28.8333 19.1668H26.1666C25.8904 19.1668 25.6666 18.943 25.6666 18.6668ZM25.6666 21.3335C25.6666 21.0574 25.8904 20.8335 26.1666 20.8335H28.8333C29.1094 20.8335 29.3333 21.0574 29.3333 21.3335C29.3333 21.6096 29.1094 21.8335 28.8333 21.8335H26.1666C25.8904 21.8335 25.6666 21.6096 25.6666 21.3335ZM25.6666 24.0002C25.6666 23.724 25.8904 23.5002 26.1666 23.5002H28.8333C29.1094 23.5002 29.3333 23.724 29.3333 24.0002C29.3333 24.2763 29.1094 24.5002 28.8333 24.5002H26.1666C25.8904 24.5002 25.6666 24.2763 25.6666 24.0002Z" fill="#869198"/>
<path d="M47.4785 15.5059C48.7682 15.5059 49.7093 15.7588 50.3018 16.2646C50.8988 16.766 51.1973 17.486 51.1973 18.4248C51.1973 18.8486 51.1266 19.252 50.9854 19.6348C50.8486 20.013 50.6253 20.348 50.3154 20.6396C50.0055 20.9268 49.5977 21.1546 49.0918 21.3232C48.5905 21.4873 47.9753 21.5693 47.2461 21.5693H46.0293V25.5H44.8672V15.5059H47.4785ZM47.3691 16.4971H46.0293V20.5713H47.1162C47.7542 20.5713 48.2852 20.5029 48.709 20.3662C49.1374 20.2295 49.4587 20.0085 49.6729 19.7031C49.887 19.3932 49.9941 18.9831 49.9941 18.4727C49.9941 17.8073 49.7822 17.3128 49.3584 16.9893C48.9346 16.6611 48.2715 16.4971 47.3691 16.4971ZM56.5225 17.8711C56.6729 17.8711 56.8301 17.8802 56.9941 17.8984C57.1582 17.9121 57.304 17.9326 57.4316 17.96L57.2881 19.0127C57.165 18.9808 57.0283 18.9557 56.8779 18.9375C56.7275 18.9193 56.5863 18.9102 56.4541 18.9102C56.1533 18.9102 55.8685 18.9717 55.5996 19.0947C55.3353 19.2132 55.1029 19.3864 54.9023 19.6143C54.7018 19.8376 54.5446 20.1087 54.4307 20.4277C54.3167 20.7422 54.2598 21.0931 54.2598 21.4805V25.5H53.1182V18.0078H54.0615L54.1846 19.3887H54.2324C54.3874 19.1107 54.5742 18.8577 54.793 18.6299C55.0117 18.3975 55.2646 18.2129 55.5518 18.0762C55.8434 17.9395 56.167 17.8711 56.5225 17.8711ZM61.7314 17.8711C62.3695 17.8711 62.9163 18.0124 63.3721 18.2949C63.8278 18.5775 64.1764 18.974 64.418 19.4844C64.6595 19.9902 64.7803 20.5827 64.7803 21.2617V21.9658H59.6055C59.6191 22.8454 59.8379 23.5153 60.2617 23.9756C60.6855 24.4359 61.2826 24.666 62.0527 24.666C62.5267 24.666 62.946 24.6227 63.3105 24.5361C63.6751 24.4495 64.0534 24.3219 64.4453 24.1533V25.1514C64.0671 25.32 63.6911 25.443 63.3174 25.5205C62.9482 25.598 62.5107 25.6367 62.0049 25.6367C61.2848 25.6367 60.6559 25.4909 60.1182 25.1992C59.585 24.903 59.1702 24.4701 58.874 23.9004C58.5778 23.3307 58.4297 22.6335 58.4297 21.8086C58.4297 21.002 58.5641 20.3047 58.833 19.7168C59.1064 19.1243 59.4893 18.6686 59.9814 18.3496C60.4782 18.0306 61.0615 17.8711 61.7314 17.8711ZM61.7178 18.8008C61.1117 18.8008 60.6286 18.999 60.2686 19.3955C59.9085 19.792 59.6943 20.3457 59.626 21.0566H63.5908C63.5863 20.61 63.5156 20.2181 63.3789 19.8809C63.2467 19.5391 63.0439 19.2747 62.7705 19.0879C62.4971 18.8965 62.1462 18.8008 61.7178 18.8008ZM71.5547 23.4492C71.5547 23.9277 71.4339 24.3311 71.1924 24.6592C70.9554 24.9827 70.6136 25.2266 70.167 25.3906C69.7249 25.5547 69.1963 25.6367 68.5811 25.6367C68.057 25.6367 67.6035 25.5957 67.2207 25.5137C66.8379 25.4316 66.5029 25.3154 66.2158 25.165V24.1191C66.5212 24.2695 66.8857 24.4062 67.3096 24.5293C67.7334 24.6523 68.1663 24.7139 68.6084 24.7139C69.2555 24.7139 69.7249 24.609 70.0166 24.3994C70.3083 24.1898 70.4541 23.9049 70.4541 23.5449C70.4541 23.3398 70.3949 23.1598 70.2764 23.0049C70.1624 22.8454 69.9688 22.6927 69.6953 22.5469C69.4219 22.3965 69.0436 22.2324 68.5605 22.0547C68.082 21.8724 67.6673 21.6924 67.3164 21.5146C66.9701 21.3324 66.7012 21.1113 66.5098 20.8516C66.3229 20.5918 66.2295 20.2546 66.2295 19.8398C66.2295 19.2064 66.4847 18.721 66.9951 18.3838C67.5101 18.042 68.1846 17.8711 69.0186 17.8711C69.4697 17.8711 69.8913 17.9167 70.2832 18.0078C70.6797 18.0944 71.0488 18.2129 71.3906 18.3633L71.0078 19.2725C70.6979 19.1403 70.3675 19.0286 70.0166 18.9375C69.6657 18.8464 69.3079 18.8008 68.9434 18.8008C68.4193 18.8008 68.016 18.8874 67.7334 19.0605C67.4554 19.2337 67.3164 19.4707 67.3164 19.7715C67.3164 20.0039 67.3802 20.1953 67.5078 20.3457C67.64 20.4961 67.8496 20.6374 68.1367 20.7695C68.4238 20.9017 68.8021 21.0566 69.2715 21.2344C69.7409 21.4076 70.1465 21.5876 70.4883 21.7744C70.8301 21.9567 71.0921 22.18 71.2744 22.4443C71.4613 22.7041 71.5547 23.0391 71.5547 23.4492ZM76.2646 17.8711C76.9027 17.8711 77.4495 18.0124 77.9053 18.2949C78.361 18.5775 78.7096 18.974 78.9512 19.4844C79.1927 19.9902 79.3135 20.5827 79.3135 21.2617V21.9658H74.1387C74.1523 22.8454 74.3711 23.5153 74.7949 23.9756C75.2188 24.4359 75.8158 24.666 76.5859 24.666C77.0599 24.666 77.4792 24.6227 77.8438 24.5361C78.2083 24.4495 78.5866 24.3219 78.9785 24.1533V25.1514C78.6003 25.32 78.2243 25.443 77.8506 25.5205C77.4814 25.598 77.0439 25.6367 76.5381 25.6367C75.818 25.6367 75.1891 25.4909 74.6514 25.1992C74.1182 24.903 73.7035 24.4701 73.4072 23.9004C73.111 23.3307 72.9629 22.6335 72.9629 21.8086C72.9629 21.002 73.0973 20.3047 73.3662 19.7168C73.6396 19.1243 74.0225 18.6686 74.5146 18.3496C75.0114 18.0306 75.5947 17.8711 76.2646 17.8711ZM76.251 18.8008C75.6449 18.8008 75.1618 18.999 74.8018 19.3955C74.4417 19.792 74.2275 20.3457 74.1592 21.0566H78.124C78.1195 20.61 78.0488 20.2181 77.9121 19.8809C77.7799 19.5391 77.5771 19.2747 77.3037 19.0879C77.0303 18.8965 76.6794 18.8008 76.251 18.8008ZM84.7891 17.8711C85.6777 17.8711 86.3499 18.0898 86.8057 18.5273C87.2614 18.9603 87.4893 19.6576 87.4893 20.6191V25.5H86.3682V20.6943C86.3682 20.07 86.2246 19.6029 85.9375 19.293C85.6549 18.9831 85.2197 18.8281 84.6318 18.8281C83.8024 18.8281 83.2191 19.0628 82.8818 19.5322C82.5446 20.0016 82.376 20.6829 82.376 21.5762V25.5H81.2412V18.0078H82.1572L82.3281 19.0879H82.3896C82.5492 18.8236 82.752 18.6025 82.998 18.4248C83.2441 18.2425 83.5199 18.1058 83.8252 18.0146C84.1305 17.9189 84.4518 17.8711 84.7891 17.8711ZM92.8281 25.6367C92.1536 25.6367 91.5589 25.4977 91.0439 25.2197C90.529 24.9417 90.1279 24.5179 89.8408 23.9482C89.5537 23.3786 89.4102 22.6608 89.4102 21.7949C89.4102 20.888 89.5605 20.1475 89.8613 19.5732C90.1667 18.9945 90.5859 18.5661 91.1191 18.2881C91.6523 18.0101 92.2585 17.8711 92.9375 17.8711C93.3112 17.8711 93.6712 17.9098 94.0176 17.9873C94.3685 18.0602 94.6556 18.1536 94.8789 18.2676L94.5371 19.2178C94.3092 19.1266 94.0449 19.0446 93.7441 18.9717C93.4479 18.8988 93.1699 18.8623 92.9102 18.8623C92.3906 18.8623 91.9577 18.974 91.6113 19.1973C91.2695 19.4206 91.012 19.7487 90.8389 20.1816C90.6702 20.6146 90.5859 21.1478 90.5859 21.7812C90.5859 22.3874 90.668 22.9046 90.832 23.333C91.0007 23.7614 91.249 24.0895 91.5771 24.3174C91.9098 24.5407 92.3245 24.6523 92.8213 24.6523C93.2178 24.6523 93.5755 24.6113 93.8945 24.5293C94.2135 24.4427 94.5029 24.3424 94.7627 24.2285V25.2402C94.512 25.3678 94.2318 25.4658 93.9219 25.5342C93.6165 25.6025 93.252 25.6367 92.8281 25.6367ZM97.6748 18.0078V25.5H96.54V18.0078H97.6748ZM97.1211 15.2051C97.3079 15.2051 97.4674 15.2666 97.5996 15.3896C97.7363 15.5081 97.8047 15.695 97.8047 15.9502C97.8047 16.2008 97.7363 16.3877 97.5996 16.5107C97.4674 16.6338 97.3079 16.6953 97.1211 16.6953C96.9251 16.6953 96.7611 16.6338 96.6289 16.5107C96.5013 16.3877 96.4375 16.2008 96.4375 15.9502C96.4375 15.695 96.5013 15.5081 96.6289 15.3896C96.7611 15.2666 96.9251 15.2051 97.1211 15.2051ZM102.884 17.8848C103.777 17.8848 104.44 18.0853 104.873 18.4863C105.306 18.8874 105.522 19.5277 105.522 20.4072V25.5H104.695L104.477 24.3926H104.422C104.212 24.666 103.993 24.8962 103.766 25.083C103.538 25.2653 103.273 25.4043 102.973 25.5C102.676 25.5911 102.312 25.6367 101.879 25.6367C101.423 25.6367 101.018 25.557 100.662 25.3975C100.311 25.238 100.033 24.9964 99.8281 24.6729C99.6276 24.3493 99.5273 23.9391 99.5273 23.4424C99.5273 22.695 99.8236 22.1208 100.416 21.7197C101.008 21.3187 101.911 21.0999 103.123 21.0635L104.415 21.0088V20.5508C104.415 19.9036 104.276 19.4502 103.998 19.1904C103.72 18.9307 103.328 18.8008 102.822 18.8008C102.43 18.8008 102.057 18.8577 101.701 18.9717C101.346 19.0856 101.008 19.2201 100.689 19.375L100.341 18.5137C100.678 18.3405 101.065 18.1924 101.503 18.0693C101.94 17.9463 102.401 17.8848 102.884 17.8848ZM104.401 21.8086L103.26 21.8564C102.326 21.8929 101.667 22.0456 101.284 22.3145C100.901 22.5833 100.71 22.9639 100.71 23.4561C100.71 23.8844 100.84 24.2012 101.1 24.4062C101.359 24.6113 101.703 24.7139 102.132 24.7139C102.797 24.7139 103.342 24.5293 103.766 24.1602C104.189 23.791 104.401 23.2373 104.401 22.499V21.8086ZM109.002 25.5H107.86V14.8633H109.002V25.5Z" fill="#C8CDD0"/>
</svg>